<svg width="32" height="32" viewBox="0 0 32 32" fill="none" xmlns="http://www.w3.org/2000/svg">
<path d="M8.42352 10.8837C10.644 12.4027 13.0141 13.5798 15.4458 14.7072C19.5496 13.2172 23.2447 11.2256 26.9433 9.14236C28.3339 8.35862 29.731 7.56661 31.1471 6.78051C29.3862 5.28343 24.239 6.05947 22.775 6.05947C18.5819 6.06539 14.39 6.05947 10.1909 6.05356C8.97835 5.9814 7.71254 5.95064 6.53014 6.05947H5.26197C4.41258 6.06361 3.24023 5.99027 2.30093 6.3008C3.62175 7.14132 4.82485 8.12262 6.04274 9.09208C6.81761 9.70842 7.59957 10.3194 8.42352 10.8837Z" fill="#FF3030"/>
<path d="M6.74662 11.8919C4.77693 10.4623 3.00835 8.82385 0.914452 7.5752C0.549499 8.55945 0.74765 9.86725 0.623436 10.7823C0.618112 10.8184 0.629942 10.8485 0.629942 10.8787C0.24961 12.5018 0.24961 14.281 0.207022 15.8496C0.163842 17.3698 -0.155566 19.5589 0.0958203 21.4499C0.0727519 22.3603 0.0638795 23.3161 0.263214 24.1164C4.17124 21.0341 8.32591 17.9737 12.5143 15.3019C10.5121 14.3076 8.57967 13.2222 6.74662 11.8919Z" fill="#FF3030"/>
<path d="M31.8723 12.2784C31.9385 11.0415 32.1083 9.68582 31.8983 8.43066C27.9755 10.608 24.2147 12.8385 20.1825 14.6964C22.4793 16.6164 24.821 18.4536 27.1202 20.3482C28.0908 21.1479 29.0532 21.96 30.0014 22.7928C30.345 23.0939 30.6845 23.4003 31.0235 23.7084C31.1276 23.5026 31.2234 23.2867 31.2985 23.046C31.7214 21.7145 31.5511 20.1216 31.447 18.6429C31.4606 18.3181 31.476 17.9916 31.4913 17.6639C31.6079 15.8699 31.7782 14.0812 31.8723 12.2784Z" fill="#FF3030"/>
<path d="M18.3719 15.4902C17.4799 15.8658 16.5767 16.229 15.6469 16.5597C15.3044 16.6815 15.0234 16.5963 14.8306 16.4094C14.6863 16.3426 14.542 16.274 14.3982 16.2065C14.3426 16.2651 14.2817 16.3201 14.2048 16.368C9.78336 19.1327 5.35896 22.3782 1.24747 25.6303C1.6071 25.8598 2.07261 25.9988 2.68303 26.0059C5.37139 26.0384 8.06447 26.0183 10.757 25.9929C15.4121 26.1183 20.0754 26.026 24.7293 26.1354C26.5281 26.1762 28.4906 26.0562 29.8505 25.0849C26.2087 21.7702 22.3018 18.8428 18.5381 15.6736C18.4689 15.6156 18.4174 15.5535 18.3719 15.4902Z" fill="#FF3030"/>
</svg>
