<svg width="32" height="32" viewBox="0 0 32 32" fill="none" xmlns="http://www.w3.org/2000/svg">
<g clip-path="url(#clip0_59_232)">
<path d="M12.0601 0.0292969C12.0601 0.0292969 4.90826 0.121305 5.00099 6.45988C5.09371 12.7985 6.39452 18.4032 8.53085 21.5267C10.6672 24.6501 16.1463 32.8266 22.3698 32.0001C22.3698 32.0001 25.4351 31.3567 27.7565 29.8865L20.2335 24.0987C20.2335 24.0987 18.0044 25.4769 16.6112 23.6393C15.218 21.8017 10.8526 13.2585 10.8526 13.2585C10.8526 13.2585 9.64521 10.5021 12.3389 9.30794L12.0601 0.0292969Z" fill="#FF3030"/>
<path d="M12.8962 0.0291862C12.8962 0.0291862 13.4536 -0.153867 14.4749 0.396895C15.4962 0.947658 15.4965 1.40673 15.4965 1.40673L15.5896 7.74627C15.5896 7.74627 15.3108 8.11398 14.9395 8.48073C14.568 8.84812 13.3605 9.39984 13.1744 9.03213C12.9893 8.66506 12.8962 0.0291862 12.8962 0.0291862Z" fill="#FF3030"/>
<path d="M20.859 23.4213L22.9272 22.3531C22.9272 22.3531 23.3914 22.2618 24.1342 22.7205C24.8774 23.1809 28.7785 26.2126 28.7785 26.2126C28.7785 26.2126 29.4285 26.7637 29.2428 27.4068C29.057 28.0499 28.5927 29.4281 28.5927 29.4281L20.859 23.4213Z" fill="#FF3030"/>
</g>
<defs>
<clipPath id="clip0_59_232">
<rect width="32" height="32" fill="white"/>
</clipPath>
</defs>
</svg>
