<svg width="505" height="188" viewBox="0 0 505 188" fill="none" xmlns="http://www.w3.org/2000/svg">
<path d="M99.128 129.152C78.296 129.152 62.744 114.656 62.744 94.4C62.744 74.144 78.296 59.648 99.224 59.648C110.84 59.648 120.536 63.872 126.872 71.552L116.888 80.768C112.376 75.584 106.712 72.896 99.992 72.896C87.416 72.896 78.488 81.728 78.488 94.4C78.488 107.072 87.416 115.904 99.992 115.904C106.712 115.904 112.376 113.216 116.888 107.936L126.872 117.152C120.536 124.928 110.84 129.152 99.128 129.152ZM137.008 128V60.8H152.464V104.576L184.528 60.8H199.12V128H183.76V84.32L151.696 128H137.008ZM223.639 60.8H275.287V128H259.927V73.472H236.887L236.407 87.488C235.543 113.888 231.799 129.056 216.055 129.056C213.751 129.056 211.255 128.672 208.375 128L209.335 114.848C210.295 115.136 211.159 115.232 212.119 115.232C219.991 115.232 222.007 105.248 222.679 88.064L223.639 60.8ZM343.527 128L337.575 113.6H306.375L300.423 128H284.487L314.439 60.8H329.799L359.847 128H343.527ZM311.367 101.792H332.679L322.023 76.064L311.367 101.792Z" fill="#D6D6D6"/>
<path d="M27.456 29.48C31.536 30.68 33.792 33.464 33.792 37.544C33.792 43.4 29.232 47 20.736 47H4.176V13.4H19.824C27.6 13.4 32.208 16.52 32.208 22.088C32.208 25.496 30.432 28.04 27.456 29.48ZM11.904 19.16V27.32H19.152C22.512 27.32 24.288 25.928 24.288 23.24C24.288 20.6 22.512 19.16 19.152 19.16H11.904ZM20.448 41.24C24.048 41.24 25.92 39.848 25.92 36.92C25.92 34.088 24.048 32.744 20.448 32.744H11.904V41.24H20.448ZM73.4554 13.4H81.1354V47H73.4554V34.904C70.5274 35.96 67.8394 36.488 65.3434 36.488C56.3194 36.488 51.3754 32.024 51.3754 23.912V13.4H59.0554V23.048C59.0554 27.656 61.5994 30.008 66.2554 30.008C68.7994 30.008 71.2954 29.48 73.4554 28.52V13.4ZM97.3605 10.424C95.4885 10.424 94.0005 9.08 94.0005 7.112C94.0005 5.144 95.4885 3.8 97.3605 3.8C99.2325 3.8 100.673 5.144 100.673 7.112C100.673 9.08 99.2325 10.424 97.3605 10.424ZM107.057 10.424C105.185 10.424 103.745 9.08 103.745 7.112C103.745 5.144 105.185 3.8 107.057 3.8C108.929 3.8 110.417 5.144 110.417 7.112C110.417 9.08 108.929 10.424 107.057 10.424ZM97.2165 40.76H115.505V47H89.4885V13.4H114.881V19.64H97.2165V26.936H112.817V32.984H97.2165V40.76ZM159.657 47H152.361L152.313 26.888L142.425 43.448H138.969L129.081 27.272V47H121.785V13.4H128.217L140.793 34.28L153.177 13.4H159.609L159.657 47Z" fill="#D6D6D6"/>
<path d="M235.92 176L227.184 162.464H221.808V176H214.08V142.4H221.808V155.984H227.376L236.208 142.4H244.416L233.424 158.624L244.752 176H235.92ZM273.467 176L270.491 168.8H254.891L251.915 176H243.947L258.923 142.4H266.603L281.627 176H273.467ZM257.387 162.896H268.043L262.715 150.032L257.387 162.896ZM322.364 176L314.828 162.464H309.932V176H302.3V162.464H297.308L289.772 176H280.796L290.876 158.432L281.42 142.4H289.628L297.164 155.984H302.3V142.4H309.932V155.984H314.924L322.508 142.4H330.716L321.308 158.432L331.34 176H322.364ZM365.862 169.664H370.566V182.96H363.366V176H339.654V182.96H332.454L332.502 169.664H333.846C338.214 169.52 339.318 162.32 339.654 152.912L340.038 142.4H365.862V169.664ZM346.518 153.632C346.23 160.784 345.462 166.928 343.158 169.664H358.182V148.736H346.662L346.518 153.632ZM391.833 176.576C381.225 176.576 373.449 169.184 373.449 159.2C373.449 149.216 381.225 141.824 391.833 141.824C402.393 141.824 410.217 149.168 410.217 159.2C410.217 169.232 402.393 176.576 391.833 176.576ZM391.833 169.952C397.833 169.952 402.345 165.584 402.345 159.2C402.345 152.816 397.833 148.448 391.833 148.448C385.833 148.448 381.321 152.816 381.321 159.2C381.321 165.584 385.833 169.952 391.833 169.952ZM439.919 142.4L439.871 148.736H423.887L423.935 176H416.207V142.4H439.919ZM457.271 176.576C446.663 176.576 438.887 169.184 438.887 159.2C438.887 149.216 446.663 141.824 457.271 141.824C467.831 141.824 475.655 149.168 475.655 159.2C475.655 169.232 467.831 176.576 457.271 176.576ZM457.271 169.952C463.271 169.952 467.783 165.584 467.783 159.2C467.783 152.816 463.271 148.448 457.271 148.448C451.271 148.448 446.759 152.816 446.759 159.2C446.759 165.584 451.271 169.952 457.271 169.952ZM486.432 164.336C486.432 157.616 493.92 156.128 493.92 151.952C493.92 149.6 491.856 148.112 488.736 148.112C485.664 148.112 483.312 149.456 481.776 151.664L475.968 148.256C478.56 144.32 483.072 141.824 489.552 141.824C496.752 141.824 501.744 145.04 501.744 150.704C501.744 158.384 493.68 159.248 493.68 164.336H486.432ZM490.08 176.384C487.392 176.384 485.472 174.416 485.472 172.016C485.472 169.568 487.392 167.744 490.08 167.744C492.768 167.744 494.688 169.568 494.688 172.016C494.688 174.416 492.768 176.384 490.08 176.384Z" fill="#D6D6D6"/>
</svg>
