<svg width="729" height="175" viewBox="0 0 729 175" fill="none" xmlns="http://www.w3.org/2000/svg">
<path d="M23.576 9.8H32.072V35H23.576V25.712H15.728V35H7.232V9.8H15.728V18.728H23.576V9.8ZM56.0283 35L54.3363 30.608H44.7603L43.0683 35H34.4283L45.4443 9.8H53.7963L64.8123 35H56.0283ZM47.1003 24.488H51.9963L49.5483 18.152L47.1003 24.488ZM93.9583 9.8H102.31V35H67.1383V9.8H75.4902V28.412H80.5663V9.8H88.9183V28.412H93.9583V9.8ZM106.759 35V9.8H115.111V22.904L123.787 9.8H131.779V35H123.427V21.932L114.787 35H106.759Z" fill="#D6D6D6"/>
<path d="M374.6 152.788C377.372 153.796 378.956 155.776 378.956 158.692C378.956 163.156 375.284 166 368.696 166H355.232V140.8H368.012C374.24 140.8 377.84 143.212 377.84 147.388C377.84 149.8 376.652 151.672 374.6 152.788ZM363.584 146.74V150.484H367.184C368.624 150.484 369.272 149.872 369.272 148.648C369.272 147.424 368.624 146.74 367.184 146.74H363.584ZM368.3 160.06C369.704 160.06 370.388 159.34 370.388 158.044C370.388 156.748 369.704 156.1 368.3 156.1H363.584V160.06H368.3ZM394.658 166.576C386.558 166.576 380.618 161.14 380.618 153.4C380.618 145.66 386.558 140.224 394.658 140.224C399.59 140.224 403.478 142.024 405.962 145.264L400.598 150.052C399.122 148.18 397.358 147.1 395.09 147.1C391.562 147.1 389.186 149.548 389.186 153.4C389.186 157.252 391.562 159.7 395.09 159.7C397.358 159.7 399.122 158.62 400.598 156.748L405.962 161.536C403.478 164.776 399.59 166.576 394.658 166.576ZM416.881 159.592H429.481V166H408.529V140.8H429.013V147.208H416.881V150.16H427.537V156.28H416.881V159.592ZM452.115 140.8V147.388H441.279V166H432.927V140.8H452.115ZM476.825 159.412H480.137V170.932H472.361V166H458.033V170.932H450.257V159.412H450.977C454.109 159.412 454.937 154.876 455.225 148.468L455.513 140.8H476.825V159.412ZM462.605 149.188C462.425 153.652 461.957 157.252 460.697 159.412H468.473V147.388H462.677L462.605 149.188ZM502.817 166L501.125 161.608H491.549L489.857 166H481.217L492.233 140.8H500.585L511.601 166H502.817ZM493.889 155.488H498.785L496.337 149.152L493.889 155.488ZM541.064 140.8H549.56V166H541.064V156.712H533.216V166H524.72V140.8H533.216V149.728H541.064V140.8ZM573.517 166L571.825 161.608H562.249L560.557 166H551.917L562.933 140.8H571.285L582.301 166H573.517ZM564.589 155.488H569.485L567.037 149.152L564.589 155.488ZM608.092 166.576C599.992 166.576 594.052 161.14 594.052 153.4C594.052 145.66 599.992 140.224 608.092 140.224C613.023 140.224 616.912 142.024 619.396 145.264L614.032 150.052C612.556 148.18 610.792 147.1 608.524 147.1C604.996 147.1 602.62 149.548 602.62 153.4C602.62 157.252 604.996 159.7 608.524 159.7C610.792 159.7 612.556 158.62 614.032 156.748L619.396 161.536C616.912 164.776 613.023 166.576 608.092 166.576ZM641.33 152.788C644.102 153.796 645.686 155.776 645.686 158.692C645.686 163.156 642.014 166 635.426 166H621.962V140.8H634.742C640.97 140.8 644.57 143.212 644.57 147.388C644.57 149.8 643.382 151.672 641.33 152.788ZM630.314 146.74V150.484H633.914C635.354 150.484 636.002 149.872 636.002 148.648C636.002 147.424 635.354 146.74 633.914 146.74H630.314ZM635.03 160.06C636.434 160.06 637.118 159.34 637.118 158.044C637.118 156.748 636.434 156.1 635.03 156.1H630.314V160.06H635.03ZM658.661 140.8H670.469V166H662.117V160.024H659.849L655.997 166H647.105L652.073 158.8C648.833 157.288 646.997 154.408 646.997 150.556C646.997 144.544 651.497 140.8 658.661 140.8ZM658.805 147.352C656.645 147.352 655.565 148.36 655.565 150.412C655.565 152.536 656.681 153.616 658.805 153.616H662.117V147.352H658.805ZM691.827 152.896C694.491 153.976 696.111 156.208 696.111 158.908C696.111 163.804 690.459 166.612 683.655 166.612C680.271 166.612 676.599 165.928 673.179 164.416L675.663 158.548C678.075 159.52 680.739 160.024 682.935 160.024C685.563 160.024 687.543 159.304 687.543 157.756C687.543 156.604 686.427 156.244 685.059 156.244H678.255V150.124H684.339C685.779 150.124 686.535 149.548 686.535 148.612C686.535 147.316 685.023 146.668 682.935 146.668C680.955 146.668 678.471 147.244 676.311 148.324L673.827 142.024C676.671 140.728 679.875 140.116 682.899 140.116C689.379 140.116 695.103 142.888 695.103 147.64C695.103 149.944 693.843 151.816 691.827 152.896ZM699.13 166V140.8H707.482V153.904L716.158 140.8H724.15V166H715.798V152.932L707.158 166H699.13Z" fill="#D6D6D6"/>
<path d="M86.592 115H65.952L65.76 84.376L51.168 108.952H41.184L26.592 85.432V115H5.952V47.8H24.576L46.464 83.608L67.776 47.8H86.4L86.592 115ZM120.661 97.912H154.262V115H98.3895V47.8H153.014V64.888H120.661V72.76H149.078V89.08H120.661V97.912ZM207.036 47.8H229.692V115H207.036V90.232H186.108V115H163.452V47.8H186.108V71.608H207.036V47.8ZM263.911 97.912H297.512V115H241.64V47.8H296.264V64.888H263.911V72.76H292.328V89.08H263.911V97.912ZM373.23 97.432H382.062V128.152H361.326V115H323.118V128.152H302.382V97.432H304.302C312.654 97.432 314.862 85.336 315.63 68.248L316.398 47.8H373.23V97.432ZM335.31 70.168C334.83 82.072 333.582 91.672 330.222 97.432H350.958V65.368H335.502L335.31 70.168ZM466.567 115L455.431 90.712H449.575V115H427.495V90.712H421.447L410.311 115H384.295L402.343 79.672L385.255 47.8H408.871L420.871 72.856H427.495V47.8H449.575V72.856H455.815L468.007 47.8H491.623L474.631 79.672L492.583 115H466.567ZM519.474 97.912H553.074V115H497.202V47.8H551.826V64.888H519.474V72.76H547.89V89.08H519.474V97.912ZM594.617 47.8C613.337 47.8 625.241 57.592 625.241 73.144C625.241 88.696 613.337 98.488 594.617 98.488H584.921V115H562.265V47.8H594.617ZM593.177 81.016C599.417 81.016 602.393 78.04 602.393 73.144C602.393 68.248 599.417 65.272 593.177 65.272H584.921V81.016H593.177ZM668.3 68.44C684.716 68.44 694.508 75.736 694.508 90.616C694.508 106.648 683.18 115 665.42 115H632.108V47.8H654.38V68.44H668.3ZM700.652 115V47.8H722.924V115H700.652ZM663.884 99.16C668.396 99.16 671.756 96.184 671.756 91C671.756 85.912 668.396 84.28 663.884 84.28H654.38V99.16H663.884Z" fill="#D6D6D6"/>
</svg>
