<svg width="543" height="164" viewBox="0 0 543 164" fill="none" xmlns="http://www.w3.org/2000/svg">
<path d="M6.232 35V9.8H28.084V16.208H14.584V19.124H20.596C26.752 19.124 30.136 21.824 30.136 26.756C30.136 31.904 26.176 35 19.516 35H6.232ZM14.584 29.06H18.94C20.632 29.06 21.604 28.304 21.604 26.972C21.604 25.676 20.704 25.028 18.94 25.028H14.584V29.06ZM48.9584 9.8H57.1664L47.0504 28.772C44.6384 33.272 41.0744 35.684 36.8984 35.684C35.3504 35.684 33.6944 35.36 32.0024 34.676L33.9824 28.556C35.0264 28.844 35.8544 28.988 36.5744 28.988C37.8344 28.988 38.6624 28.556 39.4544 27.584L29.8064 9.8H38.7704L43.7744 20.42L48.9584 9.8ZM83.3167 28.412H86.6287V39.932H78.8527V35H64.5247V39.932H56.7487V28.412H57.4687C60.6007 28.412 61.4287 23.876 61.7167 17.468L62.0047 9.8H83.3167V28.412ZM69.0967 18.188C68.9167 22.652 68.4487 26.252 67.1887 28.412H74.9647V16.388H69.1687L69.0967 18.188ZM103.054 17.54C109.21 17.54 112.882 20.276 112.882 25.856C112.882 31.868 108.634 35 101.974 35H89.482V9.8H97.834V17.54H103.054ZM101.398 29.06C103.09 29.06 104.35 27.944 104.35 26C104.35 24.092 103.09 23.48 101.398 23.48H97.834V29.06H101.398ZM145.975 21.788C148.747 22.796 150.331 24.776 150.331 27.692C150.331 32.156 146.659 35 140.071 35H126.607V9.8H139.387C145.615 9.8 149.215 12.212 149.215 16.388C149.215 18.8 148.027 20.672 145.975 21.788ZM134.959 15.74V19.484H138.559C139.999 19.484 140.647 18.872 140.647 17.648C140.647 16.424 139.999 15.74 138.559 15.74H134.959ZM139.675 29.06C141.079 29.06 141.763 28.34 141.763 27.044C141.763 25.748 141.079 25.1 139.675 25.1H134.959V29.06H139.675ZM189.246 9.8L181.758 22.04L189.21 35H179.634L174.81 25.892H172.434V35H163.938V9.8H172.434V19.196H175.026L180.39 9.8H189.246ZM208.673 9.8H216.881L206.765 28.772C204.353 33.272 200.789 35.684 196.613 35.684C195.065 35.684 193.409 35.36 191.717 34.676L193.697 28.556C194.741 28.844 195.569 28.988 196.289 28.988C197.549 28.988 198.377 28.556 199.169 27.584L189.521 9.8H198.485L203.489 20.42L208.673 9.8ZM230.778 9.8C237.798 9.8 242.262 13.472 242.262 19.304C242.262 25.136 237.798 28.808 230.778 28.808H227.142V35H218.646V9.8H230.778ZM230.238 22.256C232.578 22.256 233.694 21.14 233.694 19.304C233.694 17.468 232.578 16.352 230.238 16.352H227.142V22.256H230.238ZM257.861 35.576C249.761 35.576 243.821 30.14 243.821 22.4C243.821 14.66 249.761 9.224 257.861 9.224C262.793 9.224 266.681 11.024 269.165 14.264L263.801 19.052C262.325 17.18 260.561 16.1 258.293 16.1C254.765 16.1 252.389 18.548 252.389 22.4C252.389 26.252 254.765 28.7 258.293 28.7C260.561 28.7 262.325 27.62 263.801 25.748L269.165 30.536C266.681 33.776 262.793 35.576 257.861 35.576ZM280.084 28.592H292.684V35H271.732V9.8H292.216V16.208H280.084V19.16H290.74V25.28H280.084V28.592Z" fill="#D6D6D6"/>
<path d="M357.232 155V129.8H365.584V142.904L374.26 129.8H382.252V155H373.9V141.932L365.26 155H357.232ZM416.997 155L415.305 150.608H405.729L404.037 155H395.397L406.413 129.8H414.765L425.781 155H416.997ZM408.069 144.488H412.965L410.517 138.152L408.069 144.488ZM453.199 129.8L445.711 142.04L453.163 155H443.587L438.763 145.892H436.387V155H427.891V129.8H436.387V139.196H438.979L444.343 129.8H453.199ZM479.627 148.412H482.939V159.932H475.163V155H454.931V129.8H463.283V148.412H471.275V129.8H479.627V148.412ZM485.798 155V129.8H494.15V142.904L502.826 129.8H510.818V155H502.466V141.932L493.826 155H485.798ZM527.787 128.36C522.062 128.36 519.939 126.164 519.939 122.168H525.591C525.591 123.752 526.131 124.472 527.787 124.472C529.443 124.472 530.055 123.752 530.055 122.168H535.707C535.707 126.164 533.511 128.36 527.787 128.36ZM515.295 155V129.8H523.646V142.904L532.323 129.8H540.315V155H531.963V141.932L523.323 155H515.295Z" fill="#D6D6D6"/>
<path d="M49.536 47.8H72.192V115H49.536V90.232H28.608V115H5.952V47.8H28.608V71.608H49.536V47.8ZM118.316 116.536C96.4275 116.536 80.3955 101.752 80.3955 81.4C80.3955 61.048 96.4275 46.264 118.316 46.264C140.204 46.264 156.236 61.048 156.236 81.4C156.236 101.752 140.204 116.536 118.316 116.536ZM118.316 98.2C126.667 98.2 133.388 91.864 133.388 81.4C133.388 70.936 126.667 64.6 118.316 64.6C109.964 64.6 103.244 70.936 103.244 81.4C103.244 91.864 109.964 98.2 118.316 98.2ZM216.038 79.768C223.43 82.456 227.654 87.736 227.654 95.512C227.654 107.416 217.862 115 200.294 115H164.39V47.8H198.47C215.078 47.8 224.678 54.232 224.678 65.368C224.678 71.8 221.51 76.792 216.038 79.768ZM186.661 63.64V73.624H196.262C200.102 73.624 201.83 71.992 201.83 68.728C201.83 65.464 200.102 63.64 196.262 63.64H186.661ZM199.238 99.16C202.982 99.16 204.806 97.24 204.806 93.784C204.806 90.328 202.982 88.6 199.238 88.6H186.661V99.16H199.238ZM235.733 115V47.8H258.005V82.744L281.141 47.8H302.453V115H280.181V80.152L257.141 115H235.733ZM357.974 47.8H380.63V115H357.974V90.232H337.046V115H314.39V47.8H337.046V71.608H357.974V47.8ZM426.753 116.536C404.865 116.536 388.833 101.752 388.833 81.4C388.833 61.048 404.865 46.264 426.753 46.264C448.641 46.264 464.673 61.048 464.673 81.4C464.673 101.752 448.641 116.536 426.753 116.536ZM426.753 98.2C435.105 98.2 441.825 91.864 441.825 81.4C441.825 70.936 435.105 64.6 426.753 64.6C418.401 64.6 411.681 70.936 411.681 81.4C411.681 91.864 418.401 98.2 426.753 98.2ZM539.739 47.8L519.771 80.44L539.643 115H514.107L501.243 90.712H494.907V115H472.251V47.8H494.907V72.856H501.819L516.123 47.8H539.739Z" fill="#D6D6D6"/>
</svg>
