<svg width="302" height="161" viewBox="0 0 302 161" fill="none" xmlns="http://www.w3.org/2000/svg">
<path d="M21.6 21.788C24.372 22.796 25.956 24.776 25.956 27.692C25.956 32.156 22.284 35 15.696 35H2.232V9.8H15.012C21.24 9.8 24.84 12.212 24.84 16.388C24.84 18.8 23.652 20.672 21.6 21.788ZM10.584 15.74V19.484H14.184C15.624 19.484 16.272 18.872 16.272 17.648C16.272 16.424 15.624 15.74 14.184 15.74H10.584ZM15.3 29.06C16.704 29.06 17.388 28.34 17.388 27.044C17.388 25.748 16.704 25.1 15.3 25.1H10.584V29.06H15.3ZM42.5579 17.54C48.7139 17.54 52.3859 20.276 52.3859 25.856C52.3859 31.868 48.1379 35 41.4779 35H28.9859V9.8H37.3379V17.54H42.5579ZM54.6899 35V9.8H63.0419V35H54.6899ZM40.9019 29.06C42.5939 29.06 43.8539 27.944 43.8539 26C43.8539 24.092 42.5939 23.48 40.9019 23.48H37.3379V29.06H40.9019ZM67.5172 35V9.8H89.3692V16.208H75.8692V19.124H81.8812C88.0372 19.124 91.4212 21.824 91.4212 26.756C91.4212 31.904 87.4612 35 80.8012 35H67.5172ZM75.8692 29.06H80.2252C81.9172 29.06 82.8892 28.304 82.8892 26.972C82.8892 25.676 81.9892 25.028 80.2252 25.028H75.8692V29.06ZM102.693 28.592H115.293V35H94.3414V9.8H114.825V16.208H102.693V19.16H113.349V25.28H102.693V28.592ZM130.872 9.8C137.892 9.8 142.356 13.472 142.356 19.304C142.356 25.136 137.892 28.808 130.872 28.808H127.236V35H118.74V9.8H130.872ZM130.332 22.256C132.672 22.256 133.788 21.14 133.788 19.304C133.788 17.468 132.672 16.352 130.332 16.352H127.236V22.256H130.332ZM144.931 35V9.8H153.283V22.904L161.959 9.8H169.951V35H161.599V21.932L152.959 35H144.931Z" fill="#D6D6D6"/>
<path d="M39.744 116.536C18.144 116.536 2.304 102.04 2.304 81.4C2.304 60.76 18.144 46.264 39.744 46.264C52.896 46.264 63.264 51.064 69.888 59.704L55.584 72.472C51.648 67.48 46.944 64.6 40.896 64.6C31.488 64.6 25.152 71.128 25.152 81.4C25.152 91.672 31.488 98.2 40.896 98.2C46.944 98.2 51.648 95.32 55.584 90.328L69.888 103.096C63.264 111.736 52.896 116.536 39.744 116.536ZM128.381 79.768C135.773 82.456 139.997 87.736 139.997 95.512C139.997 107.416 130.205 115 112.637 115H76.7333V47.8H110.813C127.421 47.8 137.021 54.232 137.021 65.368C137.021 71.8 133.853 76.792 128.381 79.768ZM99.0052 63.64V73.624H108.605C112.445 73.624 114.173 71.992 114.173 68.728C114.173 65.464 112.445 63.64 108.605 63.64H99.0052ZM111.581 99.16C115.325 99.16 117.149 97.24 117.149 93.784C117.149 90.328 115.325 88.6 111.581 88.6H99.0052V99.16H111.581ZM182.253 116.536C160.365 116.536 144.333 101.752 144.333 81.4C144.333 61.048 160.365 46.264 182.253 46.264C204.141 46.264 220.173 61.048 220.173 81.4C220.173 101.752 204.141 116.536 182.253 116.536ZM182.253 98.2C190.605 98.2 197.325 91.864 197.325 81.4C197.325 70.936 190.605 64.6 182.253 64.6C173.901 64.6 167.181 70.936 167.181 81.4C167.181 91.864 173.901 98.2 182.253 98.2ZM261.639 43.96C246.375 43.96 240.711 38.104 240.711 27.448H255.783C255.783 31.672 257.223 33.592 261.639 33.592C266.055 33.592 267.687 31.672 267.687 27.448H282.759C282.759 38.104 276.903 43.96 261.639 43.96ZM228.327 115V47.8H250.599V82.744L273.735 47.8H295.047V115H272.775V80.152L249.735 115H228.327Z" fill="#D6D6D6"/>
<path d="M176.904 152.576C168.804 152.576 162.864 147.14 162.864 139.4C162.864 131.66 168.804 126.224 176.904 126.224C181.836 126.224 185.724 128.024 188.208 131.264L182.844 136.052C181.368 134.18 179.604 133.1 177.336 133.1C173.808 133.1 171.432 135.548 171.432 139.4C171.432 143.252 173.808 145.7 177.336 145.7C179.604 145.7 181.368 144.62 182.844 142.748L188.208 147.536C185.724 150.776 181.836 152.576 176.904 152.576ZM212.055 126.8V133.388H204.675V152H196.323V133.388H188.943V126.8H212.055ZM214.857 152V126.8H223.209V139.904L231.885 126.8H239.877V152H231.525V138.932L222.885 152H214.857ZM247.665 126.8H268.941V152H260.589V133.388H254.829L254.757 136.304C254.469 146.024 253.173 152.468 246.225 152.468C245.181 152.468 243.957 152.324 242.625 152L243.057 145.196C243.381 145.268 243.705 145.304 243.993 145.304C246.801 145.304 247.161 141.524 247.341 136.628L247.665 126.8ZM286.964 134.54C293.12 134.54 296.792 137.276 296.792 142.856C296.792 148.868 292.544 152 285.884 152H273.392V126.8H281.744V134.54H286.964ZM285.308 146.06C287 146.06 288.26 144.944 288.26 143C288.26 141.092 287 140.48 285.308 140.48H281.744V146.06H285.308Z" fill="#D6D6D6"/>
</svg>
