<svg width="491" height="162" viewBox="0 0 491 162" fill="none" xmlns="http://www.w3.org/2000/svg">
<path d="M16.956 9.8H25.308V35H16.956V26.936C15.264 27.44 13.788 27.692 12.384 27.692C4.968 27.692 1.044 24.128 1.044 17.396V9.8H9.396V16.46C9.396 19.52 10.728 20.96 13.464 20.96C14.832 20.96 16.02 20.78 16.956 20.384V9.8ZM51.2153 9.8V16.388H43.8353V35H35.4833V16.388H28.1033V9.8H51.2153ZM66.4816 35.576C58.2736 35.576 52.2616 30.032 52.2616 22.4C52.2616 14.768 58.2736 9.224 66.4816 9.224C74.6896 9.224 80.7016 14.768 80.7016 22.4C80.7016 30.032 74.6896 35.576 66.4816 35.576ZM66.4816 28.7C69.6136 28.7 72.1336 26.324 72.1336 22.4C72.1336 18.476 69.6136 16.1 66.4816 16.1C63.3496 16.1 60.8296 18.476 60.8296 22.4C60.8296 26.324 63.3496 28.7 66.4816 28.7ZM107.368 35.576C99.1603 35.576 93.1483 30.032 93.1483 22.4C93.1483 14.768 99.1603 9.224 107.368 9.224C115.576 9.224 121.588 14.768 121.588 22.4C121.588 30.032 115.576 35.576 107.368 35.576ZM107.368 28.7C110.5 28.7 113.02 26.324 113.02 22.4C113.02 18.476 110.5 16.1 107.368 16.1C104.236 16.1 101.716 18.476 101.716 22.4C101.716 26.324 104.236 28.7 107.368 28.7ZM151.783 9.8H160.279V35H151.783V25.712H143.935V35H135.439V9.8H143.935V18.728H151.783V9.8ZM184.235 35L182.543 30.608H172.967L171.275 35H162.635L173.651 9.8H182.003L193.019 35H184.235ZM175.307 24.488H180.203L177.755 18.152L175.307 24.488ZM207.666 35.576C199.566 35.576 193.626 30.14 193.626 22.4C193.626 14.66 199.566 9.224 207.666 9.224C212.598 9.224 216.486 11.024 218.97 14.264L213.606 19.052C212.13 17.18 210.366 16.1 208.098 16.1C204.57 16.1 202.194 18.548 202.194 22.4C202.194 26.252 204.57 28.7 208.098 28.7C210.366 28.7 212.13 27.62 213.606 25.748L218.97 30.536C216.486 33.776 212.598 35.576 207.666 35.576Z" fill="#D6D6D6"/>
<path d="M166.576 127.8H175.072V153H166.576V143.712H158.728V153H150.232V127.8H158.728V136.728H166.576V127.8ZM199.028 153L197.336 148.608H187.76L186.068 153H177.428L188.444 127.8H196.796L207.812 153H199.028ZM190.1 142.488H194.996L192.548 136.152L190.1 142.488ZM236.958 127.8H245.31V153H210.138V127.8H218.49V146.412H223.566V127.8H231.918V146.412H236.958V127.8ZM249.759 153V127.8H258.111V140.904L266.787 127.8H274.779V153H266.427V139.932L257.787 153H249.759ZM315.14 127.8L307.652 140.04L315.104 153H305.528L300.704 143.892H298.328V153H289.832V127.8H298.328V137.196H300.92L306.284 127.8H315.14ZM320.888 127.8H342.164V153H333.812V134.388H328.052L327.98 137.304C327.692 147.024 326.396 153.468 319.448 153.468C318.404 153.468 317.18 153.324 315.848 153L316.28 146.196C316.604 146.268 316.928 146.304 317.216 146.304C320.024 146.304 320.384 142.524 320.564 137.628L320.888 127.8ZM346.615 153V127.8H354.967V140.904L363.643 127.8H371.635V153H363.283V139.932L354.643 153H346.615ZM384.463 146.592H397.063V153H376.111V127.8H396.595V134.208H384.463V137.16H395.119V143.28H384.463V146.592ZM416.853 127.8H425.349V153H416.853V143.712H409.005V153H400.509V127.8H409.005V136.728H416.853V127.8ZM451.286 127.8V134.388H443.906V153H435.554V134.388H428.174V127.8H451.286ZM467.659 135.54C473.815 135.54 477.487 138.276 477.487 143.856C477.487 149.868 473.239 153 466.579 153H454.087V127.8H462.439V135.54H467.659ZM479.791 153V127.8H488.143V153H479.791ZM466.003 147.06C467.695 147.06 468.955 145.944 468.955 144C468.955 142.092 467.695 141.48 466.003 141.48H462.439V147.06H466.003Z" fill="#D6D6D6"/>
<path d="M57.12 47.8V65.368H28.224V115H5.952V47.8H57.12ZM94.0343 116.536C72.1463 116.536 56.1143 101.752 56.1143 81.4C56.1143 61.048 72.1463 46.264 94.0343 46.264C115.922 46.264 131.954 61.048 131.954 81.4C131.954 101.752 115.922 116.536 94.0343 116.536ZM94.0343 98.2C102.386 98.2 109.106 91.864 109.106 81.4C109.106 70.936 102.386 64.6 94.0343 64.6C85.6823 64.6 78.9623 70.936 78.9623 81.4C78.9623 91.864 85.6823 98.2 94.0343 98.2ZM191.756 79.768C199.148 82.456 203.372 87.736 203.372 95.512C203.372 107.416 193.58 115 176.012 115H140.108V47.8H174.188C190.796 47.8 200.396 54.232 200.396 65.368C200.396 71.8 197.228 76.792 191.756 79.768ZM162.38 63.64V73.624H171.98C175.82 73.624 177.548 71.992 177.548 68.728C177.548 65.464 175.82 63.64 171.98 63.64H162.38ZM174.956 99.16C178.7 99.16 180.524 97.24 180.524 93.784C180.524 90.328 178.7 88.6 174.956 88.6H162.38V99.16H174.956ZM245.628 116.536C223.74 116.536 207.708 101.752 207.708 81.4C207.708 61.048 223.74 46.264 245.628 46.264C267.516 46.264 283.548 61.048 283.548 81.4C283.548 101.752 267.516 116.536 245.628 116.536ZM245.628 98.2C253.98 98.2 260.7 91.864 260.7 81.4C260.7 70.936 253.98 64.6 245.628 64.6C237.276 64.6 230.556 70.936 230.556 81.4C230.556 91.864 237.276 98.2 245.628 98.2ZM324.054 47.8C342.774 47.8 354.678 57.592 354.678 73.144C354.678 88.696 342.774 98.488 324.054 98.488H314.358V115H291.702V47.8H324.054ZM322.614 81.016C328.854 81.016 331.83 78.04 331.83 73.144C331.83 68.248 328.854 65.272 322.614 65.272H314.358V81.016H322.614ZM387.502 47.8H418.99V115H396.718V99.064H390.67L380.398 115H356.686L369.934 95.8C361.294 91.768 356.398 84.088 356.398 73.816C356.398 57.784 368.398 47.8 387.502 47.8ZM387.886 65.272C382.126 65.272 379.246 67.96 379.246 73.432C379.246 79.096 382.222 81.976 387.886 81.976H396.718V65.272H387.886ZM488.137 47.8V65.368H468.457V115H446.185V65.368H426.505V47.8H488.137Z" fill="#D6D6D6"/>
</svg>
