<?xml version="1.0" encoding="UTF-8" standalone="no"?>
<!DOCTYPE svg PUBLIC "-//W3C//DTD SVG 1.1//EN" "http://www.w3.org/Graphics/SVG/1.1/DTD/svg11.dtd">
<svg width="100%" height="100%" viewBox="0 0 740 320" version="1.1" xmlns="http://www.w3.org/2000/svg" xmlns:xlink="http://www.w3.org/1999/xlink" xml:space="preserve" xmlns:serif="http://www.serif.com/" style="fill-rule:evenodd;clip-rule:evenodd;stroke-linejoin:round;stroke-miterlimit:2;">
    <g transform="matrix(1,0,0,1,-1277.81,0)">
        <g id="Логотип" transform="matrix(0.904585,0,0,0.386319,244.929,-27.9629)">
            <rect x="1141.83" y="72.383" width="818.055" height="828.332" style="fill:none;"/>
            <clipPath id="_clip1">
                <rect x="1141.83" y="72.383" width="818.055" height="828.332"/>
            </clipPath>
            <g clip-path="url(#_clip1)">
                <g transform="matrix(1.10898,0,0,2.58613,982.455,-909.604)">
                    <path d="M251.736,627.373C261.605,638.87 263.259,650.292 252.72,661.605C236.003,651.233 218.654,632.894 203.776,608.727C209.431,604.8 215.045,597.766 218.53,585.402C236.122,592.17 255.896,592.414 275.898,586.888C288.228,604.228 301.293,617.526 314.587,629.558C289.324,640.522 267.294,640.82 251.736,627.373C250.119,625.49 248.282,623.604 246.242,621.717C247.969,623.819 249.802,625.702 251.736,627.373ZM303.396,664.303C315.304,672.161 320.628,681.369 314.691,692.887C289.63,688.245 270.967,677.96 257.089,665.079C261.83,659.831 264.927,653.112 266.137,642.567C285.212,645.051 303.047,641.556 318.002,632.857C327.178,642.149 338.693,651.005 351.989,657.354C335.908,671.236 320.227,673.088 303.396,664.303C301.508,663.058 299.455,661.846 297.256,660.665C299.321,662.03 301.367,663.244 303.396,664.303ZM159.486,433.601C137,530.623 196.565,663.911 313.049,699.642C313.049,699.642 235.26,711.024 172.283,607.37C116.583,515.692 159.486,433.601 159.486,433.601ZM169.497,446.162C171.595,425.312 185.814,406.216 223.7,390.546C215.474,410.406 214.271,429.598 218.404,448.281C199.302,443.465 195.598,434.089 198.629,419.855C190.452,432.378 180.499,440.231 169.497,446.162ZM164.057,457.931C173.234,454.277 181.659,449.873 188.952,441.511C196.676,451.179 206.887,456.62 219.32,458.284C219.843,477.198 225.33,494.457 234.327,510.546C204.386,513.906 186.759,503.654 183.655,477.352C184.843,503.884 177.936,516.092 166.882,520.963C163.072,507.003 160.786,487.466 164.057,457.931ZM166.758,530.477C174.746,526.97 184.531,518.592 188.107,508.089C198.922,514.105 224.911,520.915 237.046,517.739C242.409,536.1 257.917,566.761 273.228,581.589C233.027,591.465 214.065,578.779 200.863,553.148C212.026,577.246 213.092,595.046 201.18,604.099C186.886,585.036 173.346,556.397 166.758,530.477ZM321.974,692.445C323.286,687.948 325.15,680.759 321.533,673.245C334.024,674.925 344.059,672.52 357.948,661.327C366.076,665.762 374.685,668.515 383.991,668.831C368.192,685.703 346.601,694.994 321.974,692.445ZM422.313,603.179C419.416,625.919 411.496,657.973 384.971,658.134C344.241,658.382 291.236,602.94 261.044,544.444C223.463,471.633 208.543,387.822 253.804,380.279C260.75,379.121 268.215,379.799 275.875,381.775L511.337,396.6L304.54,394.031C310.437,397.397 316.213,401.141 321.722,405.018L629.087,419.877L337.657,417.097C343.591,421.907 348.886,426.536 353.262,430.521L746.196,446.069L348.897,442.973C322.774,419.071 292.882,391.647 271.917,397.276C237.849,406.423 244.424,462.606 283.7,531.928C322.735,600.825 359.476,634.665 384.265,632.553C409.809,630.377 409.501,588.972 409.501,588.972L423.703,589.166C423.702,589.181 881.374,595.386 881.374,595.386L422.313,603.179Z" style="fill:rgb(255,48,48);"/>
                </g>
                <g transform="matrix(0.315427,0,0,0.516761,1293.92,382.911)">
                    <path d="M582.596,563.14L573.134,574.014L550.474,574.014L538.469,643.222L530.439,643.222L544.352,563.14L582.596,563.14Z" style="fill:rgb(172,172,172);fill-rule:nonzero;"/>
                    <path d="M626.802,643.222L619.249,643.222L629.982,581.49L629.744,581.49L591.898,643.222L584.186,643.222L598.338,561.781L605.017,566.878L595.158,623.513L595.317,623.513L633.401,561.781L640.08,566.878L626.802,643.222Z" style="fill:rgb(172,172,172);fill-rule:nonzero;"/>
                    <path d="M656.22,563.027L691.362,563.027L696.689,573.901L691.442,602.898L682.139,613.772L655.107,613.772L649.78,643.222L641.67,643.222L656.22,563.027ZM657.094,602.898L683.332,602.898L688.579,573.901L662.342,573.901L657.094,602.898Z" style="fill:rgb(172,172,172);fill-rule:nonzero;"/>
                    <path d="M706.389,632.348L733.819,632.348L744.394,573.901L716.964,573.901L706.389,632.348ZM708.854,573.901L718.474,563.027L746.859,563.027L752.504,573.901L741.929,632.348L732.309,643.222L703.924,643.222L698.279,632.348L708.854,573.901Z" style="fill:rgb(172,172,172);fill-rule:nonzero;"/>
                    <path d="M764.668,573.901L774.607,563.027L802.434,563.027L807.92,573.901L772.778,573.901L762.203,632.348L797.823,632.348L788.362,643.222L760.057,643.222L754.094,632.348L764.668,573.901Z" style="fill:rgb(172,172,172);fill-rule:nonzero;"/>
                    <path d="M824.299,561.668L831.534,566.652L825.73,598.367L854.353,565.292L860.077,570.503L831.852,602.445L852.445,643.222L841.632,643.222L824.14,607.429L817.62,643.222L809.511,643.222L824.299,561.668Z" style="fill:rgb(172,172,172);fill-rule:nonzero;"/>
                    <path d="M910.644,566.765L872.242,643.222L863.099,643.222L872.004,625.325L861.668,566.765L869.539,561.781L878.762,612.526L904.284,561.781L910.644,566.765Z" style="fill:rgb(172,172,172);fill-rule:nonzero;"/>
                    <path d="M931.873,573.901L912.235,573.901L922.014,563.027L961.609,563.027L951.829,573.901L939.983,573.901L927.421,643.222L919.311,643.222L931.873,573.901Z" style="fill:rgb(172,172,172);fill-rule:nonzero;"/>
                    <path d="M963.199,643.222L977.749,563.027L1017.26,563.027L1007.8,573.901L983.871,573.901L979.737,596.781L1007.4,596.781L997.785,607.655L977.749,607.655L973.296,632.348L1004.7,632.348L995.241,643.222L963.199,643.222Z" style="fill:rgb(172,172,172);fill-rule:nonzero;"/>
                    <path d="M1033.4,563.027L1068.55,563.027L1073.87,573.901L1068.63,602.898L1059.32,613.772L1032.29,613.772L1026.96,643.222L1018.85,643.222L1033.4,563.027ZM1034.28,602.898L1060.52,602.898L1065.76,573.901L1039.53,573.901L1034.28,602.898Z" style="fill:rgb(172,172,172);fill-rule:nonzero;"/>
                    <path d="M1131.91,643.222L1123.88,643.222L1138.04,561.781L1145.19,566.878L1131.91,643.222ZM1118.56,632.461L1109.41,643.222L1075.46,643.222L1089.62,561.781L1096.77,566.765L1092.08,593.61L1118,593.61L1123.41,604.484L1118.56,632.461ZM1110.53,632.461L1115.38,604.484L1090.25,604.484L1085.4,632.461L1110.53,632.461Z" style="fill:rgb(172,172,172);fill-rule:nonzero;"/>
                    <path d="M1152.19,630.535L1160.62,630.535L1158.15,643.901L1147.66,655.455L1152.19,630.535Z" style="fill:rgb(172,172,172);fill-rule:nonzero;"/>
                    <path d="M1207.45,573.901L1217.38,563.027L1245.21,563.027L1250.7,573.901L1215.56,573.901L1204.98,632.348L1240.6,632.348L1231.14,643.222L1202.84,643.222L1196.87,632.348L1207.45,573.901Z" style="fill:rgb(172,172,172);fill-rule:nonzero;"/>
                    <path d="M1267.79,602.671L1294.51,602.671L1299.68,573.901L1272.96,573.901L1267.79,602.671ZM1264.85,573.901L1274.63,563.027L1301.98,563.027L1307.79,573.901L1295.22,643.222L1287.11,643.222L1292.52,613.545L1265.81,613.545L1260.4,643.222L1252.29,643.222L1264.85,573.901Z" style="fill:rgb(172,172,172);fill-rule:nonzero;"/>
                    <path d="M1323.05,568.011L1333.7,561.668L1341.66,617.623L1370.91,561.668L1379.02,568.011L1365.35,643.222L1357.72,643.222L1369.09,580.697L1368.93,580.697L1343.17,631.442L1335.22,631.442L1328.54,580.697L1328.38,580.697L1317.01,643.222L1309.38,643.222L1323.05,568.011Z" style="fill:rgb(172,172,172);fill-rule:nonzero;"/>
                    <path d="M1388.72,632.348L1416.15,632.348L1426.73,573.901L1399.3,573.901L1388.72,632.348ZM1391.19,573.901L1400.81,563.027L1429.19,563.027L1434.84,573.901L1424.26,632.348L1414.64,643.222L1386.26,643.222L1380.61,632.348L1391.19,573.901Z" style="fill:rgb(172,172,172);fill-rule:nonzero;"/>
                    <path d="M1451.22,561.668L1458.45,566.652L1452.65,598.367L1481.27,565.292L1487,570.503L1458.77,602.445L1479.36,643.222L1468.55,643.222L1451.06,607.429L1444.54,643.222L1436.43,643.222L1451.22,561.668Z" style="fill:rgb(172,172,172);fill-rule:nonzero;"/>
                    <path d="M1504.09,602.671L1530.8,602.671L1535.97,573.901L1509.26,573.901L1504.09,602.671ZM1501.15,573.901L1510.93,563.027L1538.28,563.027L1544.08,573.901L1531.52,643.222L1523.41,643.222L1528.82,613.545L1502.1,613.545L1496.7,643.222L1488.59,643.222L1501.15,573.901Z" style="fill:rgb(172,172,172);fill-rule:nonzero;"/>
                    <path d="M1565.31,573.901L1545.67,573.901L1555.45,563.027L1595.05,563.027L1585.27,573.901L1573.42,573.901L1560.86,643.222L1552.75,643.222L1565.31,573.901Z" style="fill:rgb(172,172,172);fill-rule:nonzero;"/>
                    <path d="M1653.09,643.222L1645.06,643.222L1659.21,561.781L1666.37,566.878L1653.09,643.222ZM1639.73,632.461L1630.59,643.222L1596.64,643.222L1610.79,561.781L1617.94,566.765L1613.25,593.61L1639.17,593.61L1644.58,604.484L1639.73,632.461ZM1631.7,632.461L1636.55,604.484L1611.42,604.484L1606.58,632.461L1631.7,632.461Z" style="fill:rgb(172,172,172);fill-rule:nonzero;"/>
                    <path d="M1735.62,643.222L1728.06,643.222L1738.8,581.49L1738.56,581.49L1700.71,643.222L1693,643.222L1707.15,561.781L1713.83,566.878L1703.97,623.513L1704.13,623.513L1742.22,561.781L1748.89,566.878L1735.62,643.222Z" style="fill:rgb(172,172,172);fill-rule:nonzero;"/>
                    <path d="M1786.1,573.901L1796.04,563.027L1823.87,563.027L1829.36,573.901L1794.21,573.901L1783.64,632.348L1819.26,632.348L1809.8,643.222L1781.49,643.222L1775.53,632.348L1786.1,573.901Z" style="fill:rgb(172,172,172);fill-rule:nonzero;"/>
                    <path d="M1873.56,643.222L1866.01,643.222L1876.74,581.49L1876.5,581.49L1838.66,643.222L1830.95,643.222L1845.1,561.781L1851.78,566.878L1841.92,623.513L1842.08,623.513L1880.16,561.781L1886.84,566.878L1873.56,643.222Z" style="fill:rgb(172,172,172);fill-rule:nonzero;"/>
                    <path d="M1940.59,563.14L1931.13,574.014L1908.47,574.014L1896.46,643.222L1888.43,643.222L1902.34,563.14L1940.59,563.14Z" style="fill:rgb(172,172,172);fill-rule:nonzero;"/>
                    <path d="M1958.72,596.781L1985.91,596.781L1990.04,573.901L1962.85,573.901L1958.72,596.781ZM1952.28,632.348L1979.47,632.348L1983.92,607.655L1956.73,607.655L1952.28,632.348ZM1956.73,563.027L1992.82,563.027L1998.15,573.901L1994.26,595.422L1987.66,601.992L1991.79,609.014L1987.58,632.348L1978.27,643.222L1942.18,643.222L1956.73,563.027Z" style="fill:rgb(172,172,172);fill-rule:nonzero;"/>
                    <path d="M1999.74,643.222L2014.29,563.027L2053.81,563.027L2044.35,573.901L2020.41,573.901L2016.28,596.781L2043.95,596.781L2034.33,607.655L2014.29,607.655L2009.84,632.348L2041.24,632.348L2031.78,643.222L1999.74,643.222Z" style="fill:rgb(172,172,172);fill-rule:nonzero;"/>
                    <path d="M2098.01,643.222L2090.46,643.222L2101.19,581.49L2100.95,581.49L2063.11,643.222L2055.4,643.222L2069.55,561.781L2076.23,566.878L2066.37,623.513L2066.53,623.513L2104.61,561.781L2111.29,566.878L2098.01,643.222Z" style="fill:rgb(172,172,172);fill-rule:nonzero;"/>
                </g>
                <g transform="matrix(1.35135,0,0,3.125,-519.9,-982.145)">
                    <g transform="matrix(6.47111,0,0,3.90572,-972.132,-1503.3)">
                        <path d="M371.91,494.457L368.98,494.457L368.98,508.519L366.051,508.519L366.051,492.406L378.941,492.406C380.113,492.406 380.699,492.992 380.699,494.164L380.699,508.519L377.769,508.519L377.769,494.457L374.84,494.457L374.84,508.519L371.91,508.519L371.91,494.457ZM385.141,500.468L380.746,492.406L383.676,492.406L386.605,497.773L389.535,492.406L392.465,492.406L388.07,500.468L388.07,508.519L385.141,508.519L385.141,500.468ZM407.433,499.437L407.433,508.519L399.523,508.519C398.351,508.519 397.766,507.929 397.766,506.75L397.766,494.164C397.766,492.992 398.355,492.406 399.535,492.406L407.433,492.406L406.555,494.457L400.695,494.457L400.695,506.468L404.504,506.468L404.504,501.488L402.16,501.488L403.039,499.437L407.433,499.437ZM408.605,508.519L408.605,492.406L411.535,492.406L411.535,508.519L408.605,508.519ZM420.394,501.488L422.668,508.519L419.738,508.519L416.808,499.437L419.738,499.437L419.738,494.457L415.637,494.457L415.637,508.508L412.719,508.519L412.707,492.406L420.91,492.406C422.082,492.406 422.668,492.992 422.668,494.164L422.668,499.73C422.668,500.902 422.082,501.488 420.91,501.488L420.394,501.488ZM433.801,506.761C433.801,507.933 433.215,508.519 432.043,508.519L425.598,508.519C424.426,508.519 423.84,507.933 423.84,506.761L423.84,494.164C423.84,492.992 424.426,492.406 425.598,492.406L432.043,492.406C433.215,492.406 433.801,492.992 433.801,494.164L433.801,506.761ZM430.871,494.457L426.769,494.457L426.769,506.468L430.871,506.468L430.871,494.457ZM395.542,499.617L395.213,501.668L392.145,501.668L392.474,499.617L395.542,499.617Z" style="fill:white;"/>
                    </g>
                    <g transform="matrix(6.47111,0,0,3.90572,-972.132,-1503.3)">
                        <path d="M371.91,494.457L368.98,494.457L368.98,500.787C367.812,500.073 366.969,499.345 366.051,498.093L366.051,492.406L378.941,492.406C380.113,492.406 380.699,492.992 380.699,494.164L380.707,499.311C379.566,501.077 378.177,501.867 377.769,501.882L377.769,494.457L374.84,494.457L374.842,502.526C374.08,502.673 372.835,502.56 371.908,502.134L371.91,494.457ZM388.07,506.179L388.07,508.519L385.141,508.519C386.117,507.269 387.094,506.502 388.07,506.179ZM397.766,494.164C397.766,492.992 398.355,492.406 399.535,492.406L407.433,492.406L406.555,494.457L400.695,494.457L400.7,495.544L397.766,494.164ZM408.608,494.247L408.605,492.406L411.535,492.406C410.747,493.374 409.74,493.929 408.608,494.247ZM420.394,501.488L422.668,508.519L419.738,508.519L416.882,499.664L417.105,499.437L419.738,499.437L419.738,494.457L415.637,494.457L415.637,508.508L413.08,508.519C413.528,505.405 414.563,502.562 415.637,500.809L415.637,494.457L419.738,494.457L419.738,497.087C420.898,496.186 421.873,495.986 422.67,495.952C422.67,495.952 422.668,498.561 422.668,499.73C422.668,500.902 422.082,501.488 420.91,501.488L420.394,501.488ZM433.801,506.761C433.801,507.933 433.215,508.519 432.043,508.519L425.598,508.519C424.426,508.519 423.84,507.933 423.84,506.761L423.84,495.954C425.02,496.122 425.957,496.547 426.769,497.157L426.769,494.457L430.871,494.457L430.871,501.151C432.046,502.762 433.005,504.656 433.801,506.761ZM430.871,494.457L426.769,494.457L426.769,506.468L430.871,506.468L430.871,494.457Z" style="fill:rgb(181,181,181);"/>
                    </g>
                    <g transform="matrix(6.47111,0,0,3.90572,-972.132,-1503.3)">
                        <path d="M399.523,508.519C398.351,508.519 397.769,507.984 397.769,506.804C397.769,506.5 397.767,505.374 397.767,505.374C398.869,505.439 400.51,506.965 401.006,508.519L399.523,508.519Z" style="fill:rgb(218,218,218);"/>
                    </g>
                    <g transform="matrix(6.47111,0,0,3.90572,-972.132,-1503.3)">
                        <path d="M382.931,496.415L380.746,492.406L383.676,492.406L383.938,492.902C383.832,494.06 383.431,495.758 382.931,496.415Z" style="fill:rgb(218,218,218);"/>
                    </g>
                </g>
            </g>
        </g>
    </g>
</svg>
