<svg width="200" height="100" viewBox="0 0 200 100" fill="none" xmlns="http://www.w3.org/2000/svg">
<path d="M155.644 41.8037C155.644 37.0491 151.81 33.1841 147.086 33.1841H147.025H146.994H141.074H141.043H140.982C136.258 33.1841 132.423 37.0491 132.423 41.8037C132.423 41.8344 132.423 41.8651 132.423 41.9264C132.423 41.9571 132.423 41.9878 132.423 41.9878V68.7056C132.423 68.7362 132.423 68.7362 132.423 68.7669C132.423 68.7976 132.423 68.8283 132.423 68.8896C132.423 73.6442 136.258 77.5092 140.982 77.5092C141.012 77.5092 141.012 77.5092 141.043 77.5092C141.043 77.5092 141.043 77.5092 141.074 77.5092H147.117C151.84 77.5092 155.675 73.6442 155.675 68.8896C155.675 68.8589 155.675 68.8282 155.675 68.7976C155.675 68.7669 155.675 68.7362 155.675 68.7362V42.0184C155.675 41.9878 155.675 41.9878 155.675 41.9571C155.644 41.8651 155.644 41.8344 155.644 41.8037ZM147.086 43.2761V67.4786V67.5092V67.5399C147.086 68.7976 146.074 69.8098 144.816 69.8098C144.816 69.8098 144.816 69.8098 144.785 69.8098H143.221C141.963 69.8098 140.951 68.7976 140.951 67.5399V67.5092C140.951 67.5092 140.951 67.5092 140.951 67.4786V43.2761V43.2454V43.2148C140.951 41.9571 141.963 40.9448 143.221 40.9448H143.252H144.816C146.074 40.9448 147.086 41.9571 147.086 43.2148V43.2761Z" fill="#8DC225"/>
<path d="M119.08 33.184H119.018H118.282C116.196 33.184 114.509 33.6442 112.975 33.9816V19.8098C112.975 19.8098 108.865 20.8221 107.086 21.2515C105.061 21.7423 104.417 22.5092 104.417 24.5337V40.8221V76.4049C104.448 76.4049 104.479 76.4049 104.479 76.4049C107.27 75.9141 108.712 75.9141 111.902 76.4356C113.681 76.7117 115.675 77.4785 118.282 77.4785H119.018H119.049C119.08 77.4785 119.08 77.4785 119.11 77.4785C123.834 77.4785 127.669 73.6135 127.669 68.8589V41.8037C127.638 37.0491 123.804 33.184 119.08 33.184ZM119.08 43.2761V67.4172C119.08 67.4172 119.08 67.4172 119.08 67.4478V67.4785C119.08 68.7362 118.067 69.7485 116.81 69.7485H115.245H115.215C113.957 69.7485 112.945 68.7362 112.945 67.4785C112.945 67.4785 112.945 67.4785 112.945 67.4478C112.945 67.4478 112.945 67.4478 112.945 67.4172V43.2761C112.945 43.2761 112.945 43.2761 112.945 43.2454V43.2147C112.945 41.9571 113.957 40.9448 115.215 40.9448C115.215 40.9448 115.215 40.9448 115.245 40.9448H116.81C118.067 40.9448 119.08 41.9571 119.08 43.2147C119.08 43.2147 119.08 43.2454 119.08 43.2761Z" fill="#8DC225"/>
<path d="M178.773 72.3251C178.589 70.7914 177.853 69.8405 176.104 69.8405H171.38C169.877 69.8405 169.018 68.7668 169.018 67.5092V67.4785C169.018 67.4785 169.018 67.4785 169.018 67.4478V46.9264C171.779 46.2515 175.491 45.2699 176.258 45.0859C178.282 44.5951 178.926 43.8282 178.926 41.8037V41.5583V36.9877C178.926 36.9877 173.037 38.5214 169.018 39.5337V39.2883V27.3865C169.018 27.3865 164.877 28.4294 163.129 28.8282C161.104 29.2883 160.46 30.0859 160.46 32.1411V68.7362C160.46 68.7668 160.46 68.7668 160.46 68.7975C160.46 68.8282 160.46 68.8589 160.46 68.9202C160.46 73.6748 164.294 77.5398 169.018 77.5398H179.386C179.386 77.5092 178.926 73.7668 178.773 72.3251Z" fill="#8DC225"/>
<path d="M14.908 43.2761C14.908 43.2454 14.908 43.2454 14.908 43.2761C14.908 43.2454 14.908 43.2454 14.908 43.2148C14.908 41.9571 15.9202 40.9448 17.1779 40.9448H18.7423C20 40.9448 20.9816 41.9571 20.9816 43.2148V43.2454C20.9816 43.2454 20.9816 43.2454 20.9816 43.2761V77.5092H29.5399V41.8037C29.5399 37.0491 25.7055 33.1841 20.9816 33.1841H20.9202H20.8896H20.1534C17.546 33.1841 15.5521 33.9203 13.773 34.227C10.6135 34.7485 9.14109 34.7485 6.34968 34.2577C6.31901 34.2577 6.28833 34.2577 6.28833 34.2577V77.5092H14.8466V43.2761H14.908Z" fill="#006587"/>
<path d="M56.7178 43.2761C56.7178 43.2454 56.7178 43.2454 56.7178 43.2761C56.7178 43.2454 56.7178 43.2454 56.7178 43.2148C56.7178 41.9571 57.73 40.9448 58.957 40.9448H58.9877H60.5521C61.8098 40.9448 62.8221 41.9571 62.8221 43.2148V43.2454C62.8221 43.2454 62.8221 43.2454 62.8221 43.2761V77.5092H71.3803V41.9878C71.3803 41.9571 71.3803 41.9571 71.3803 41.9264C71.3803 41.8957 71.3803 41.8344 71.3803 41.8037C71.3803 37.0491 67.546 33.1841 62.8221 33.1841H62.7607H62.73H56.8098H56.7791H56.7178C51.9938 33.1841 48.1595 37.0491 48.1595 41.8037C48.1595 41.8344 48.1595 41.8651 48.1595 41.9264C48.1595 41.9571 48.1595 41.9878 48.1595 41.9878V77.5092H56.7178V43.2761Z" fill="#006587"/>
<path d="M37.2699 21.2515C35.2454 21.7117 34.6012 22.5092 34.6012 24.5337C34.6012 24.9018 34.6012 31.6503 34.6012 31.6503C34.6012 31.6503 38.7423 30.6074 40.4908 30.2086C42.5153 29.7485 43.1595 28.9509 43.1595 26.9264C43.1595 26.5583 43.1595 19.8098 43.1595 19.8098C43.1595 19.8098 39.0184 20.8528 37.2699 21.2515Z" fill="#006587"/>
<path d="M37.2699 34.6258C35.2454 35.0859 34.6012 35.8835 34.6012 37.9387V77.5092H43.1595V33.1841C43.1595 33.1841 39.0184 34.227 37.2699 34.6258Z" fill="#006587"/>
<path d="M99.4172 41.8037C99.4172 37.0491 95.5828 33.1841 90.8589 33.1841H90.7976H90.7669H84.816H84.7853H84.7239C80 33.1841 76.1656 37.0491 76.1656 41.8037C76.1656 41.8344 76.1656 41.8651 76.1656 41.9264C76.1656 41.9571 76.1656 41.9878 76.1656 41.9878V68.7056C76.1656 68.7362 76.1656 68.7362 76.1656 68.7669C76.1656 68.7976 76.1656 68.8283 76.1656 68.8896C76.1656 73.6442 80 77.5092 84.7239 77.5092C84.7546 77.5092 84.7546 77.5092 84.7853 77.5092H84.816H90.8589C95.5215 77.5092 99.2945 73.7669 99.4172 69.135V68.7362V65.1166V60.7608C99.4172 60.7608 95.2761 61.8037 93.5276 62.2025C91.5031 62.6626 90.8589 63.4602 90.8589 65.4847V67.5706C90.8282 68.7976 89.8466 69.8098 88.6196 69.8098C88.6196 69.8098 88.6196 69.8098 88.589 69.8098H87.0245C85.7669 69.8098 84.7546 68.7976 84.7546 67.5399V67.5092V67.4786V58.9816C84.7546 58.9816 96.135 56.2209 96.7791 56.0982C98.8037 55.6381 99.4479 54.8405 99.4479 52.7853V41.9878C99.4479 41.9571 99.4479 41.9571 99.4479 41.9264C99.4172 41.8651 99.4172 41.8344 99.4172 41.8037ZM90.8589 43.2761V50.2393L84.7239 51.7117V43.2761V43.2454V43.2148C84.7239 41.9571 85.7362 40.9448 86.9939 40.9448H87.0245H88.589H88.6196C89.8773 40.9448 90.8896 41.9571 90.8896 43.2148C90.8589 43.2148 90.8282 43.2454 90.8589 43.2761C90.8589 43.2454 90.8282 43.2454 90.8589 43.2761Z" fill="#006587"/>
<path d="M178.896 16.6811V15.9756H183.834V16.6811H181.779V22.0492H180.951V16.6811H178.896Z" fill="#888888"/>
<path d="M190.399 22.0492H189.601V18.4602V16.9572L187.883 22.0492H187.055L185.368 16.9572V18.4602V22.0492H184.571V15.9756H185.736L187.485 21.0983L189.233 15.9756H190.399V22.0492Z" fill="#888888"/>
</svg>
