<svg width="25" height="34" viewBox="0 0 25 34" fill="none" xmlns="http://www.w3.org/2000/svg">
<g clip-path="url(#clip0_18_66)">
<path d="M7.27065 0.0310059C7.27065 0.0310059 -0.0944811 0.128764 0.00101219 6.8635C0.0965054 13.5982 1.43611 19.5533 3.63617 22.872C5.83622 26.1906 11.4788 34.8781 17.8879 34C17.8879 34 21.0446 33.3164 23.4353 31.7543L15.6879 25.6047C15.6879 25.6047 13.3923 27.0691 11.9576 25.1166C10.5228 23.1642 6.02721 14.087 6.02721 14.087C6.02721 14.087 4.78377 11.1584 7.5578 9.88957L7.27065 0.0310059Z" fill="#661717"/>
<path d="M8.13177 0.0310103C8.13177 0.0310103 8.70575 -0.163484 9.75752 0.421701C10.8093 1.00689 10.8096 1.49465 10.8096 1.49465L10.9055 8.23041C10.9055 8.23041 10.6183 8.62111 10.236 9.01077C9.85335 9.40112 8.60992 9.98733 8.41825 9.59664C8.22761 9.20663 8.13177 0.0310103 8.13177 0.0310103Z" fill="#661717"/>
<path d="M16.332 24.885L18.4619 23.7501C18.4619 23.7501 18.9401 23.653 19.705 24.1404C20.4703 24.6295 24.4878 27.8508 24.4878 27.8508C24.4878 27.8508 25.1572 28.4363 24.9659 29.1196C24.7746 29.8029 24.2965 31.2672 24.2965 31.2672L16.332 24.885Z" fill="#661717"/>
</g>
<defs>
<clipPath id="clip0_18_66">
<rect width="25" height="34" fill="white"/>
</clipPath>
</defs>
</svg>
